<svg xmlns="http://www.w3.org/2000/svg" viewBox="0 0 64 64" fill="none">
  <rect width="64" height="64" rx="14" fill="#ff8b00"/>
  <!-- Swoop bird mark extracted from official logo, scaled to fit 64x64 badge -->
  <g transform="translate(-28, -2) scale(0.55)">
    <path fill-rule="evenodd" fill="#fff" d="M111.79,21.31l-2.16-.81c-14.11-5.3-16.27-5.93-16.9-5.93a15.59,15.59,0,0,0-27.06,1.62,3.69,3.69,0,0,1-1-.09h-1A23.49,23.49,0,0,0,54.88,18a22.11,22.11,0,0,0-8.36,6.29L4.44,65l36.68-2-.63,36.65L80.68,54.46a22,22,0,0,0,4.5-7.18,21.7,21.7,0,0,0,1.53-7.46V38.2a3.69,3.69,0,0,0-.09-1,15.78,15.78,0,0,0,8.09-9.52,7.5,7.5,0,0,0,1.35-.36ZM80.05,25.36l1.08,1.34c.09.09.18.18.18.27.27.45.63.9.9,1.44.09.18.18.27.27.45.27.45.45.9.72,1.35a22.32,22.32,0,0,1,1.71,5.93,14.27,14.27,0,0,1-5.13,1A14,14,0,0,1,66.84,18a19,19,0,0,1,4.94,1.26,20.56,20.56,0,0,1,8.27,5.84C80,25.27,80,25.27,80.05,25.36Zm5,14.37h0a21.13,21.13,0,0,1-12.59,18.6A20.69,20.69,0,0,1,64.77,60L42.83,61.2l.36-20.3v-.09a22.13,22.13,0,0,1,1.35-9.62A20.88,20.88,0,0,1,55.69,19.52,20.33,20.33,0,0,1,64,17.81h.9a14.58,14.58,0,0,0-.9,5.3A15.82,15.82,0,0,0,79.69,38.92,17.29,17.29,0,0,0,85,38v1.71ZM8.94,63,43.28,29.76a9.34,9.34,0,0,0-.36.9A22.54,22.54,0,0,0,41.48,41l-.36,20.3Zm33.89-.09,21.94-1.17A21.76,21.76,0,0,0,73,59.85a8.36,8.36,0,0,0,.9-.45L42.29,95.07ZM86.44,35.42a20.63,20.63,0,0,0-1.62-5.57c-.09-.09-.09-.27-.18-.36a9.84,9.84,0,0,0-.72-1.35,5.16,5.16,0,0,0-.36-.63,7.77,7.77,0,0,0-.9-1.44c-.09-.09-.18-.27-.27-.36-.36-.44-.72-1-1.08-1.43-.09-.09-.09-.18-.18-.18-.45-.54-.9-1-1.35-1.44h0a22.48,22.48,0,0,0-7.37-4.76,24.42,24.42,0,0,0-4.85-1.35,14,14,0,0,1,26.16,6.83A14.13,14.13,0,0,1,86.44,35.42Zm8.72-9.62a12.06,12.06,0,0,0,.27-2.6A16.22,16.22,0,0,0,94,16.64c1.71.54,5.39,1.89,13,4.67l-11.42,4.4A.68.68,0,0,1,95.16,25.8Z" transform="translate(-4.44 -7.48)"/>
    <ellipse fill="#fff" cx="57.81" cy="32.7" rx="6.29" ry="6.38"/>
  </g>
</svg>
