<svg id="Layer_1" data-name="Layer 1" xmlns="http://www.w3.org/2000/svg" viewBox="0 0 251.38 92.17"><defs><style>.cls-1,.cls-2{fill:#fff;}.cls-1{fill-rule:evenodd;}</style></defs><g id="Symbols"><g id="Swoop-Logo-White"><g id="Group"><path id="Shape" class="cls-1" d="M111.79,21.31l-2.16-.81c-14.11-5.3-16.27-5.93-16.9-5.93a15.59,15.59,0,0,0-27.06,1.62,3.69,3.69,0,0,1-1-.09h-1A23.49,23.49,0,0,0,54.88,18a22.11,22.11,0,0,0-8.36,6.29L4.44,65l36.68-2-.63,36.65L80.68,54.46a22,22,0,0,0,4.5-7.18,21.7,21.7,0,0,0,1.53-7.46V38.2a3.69,3.69,0,0,0-.09-1,15.78,15.78,0,0,0,8.09-9.52,7.5,7.5,0,0,0,1.35-.36ZM80.05,25.36l1.08,1.34c.09.09.18.18.18.27.27.45.63.9.9,1.44.09.18.18.27.27.45.27.45.45.9.72,1.35a22.32,22.32,0,0,1,1.71,5.93,14.27,14.27,0,0,1-5.13,1A14,14,0,0,1,66.84,18a19,19,0,0,1,4.94,1.26,20.56,20.56,0,0,1,8.27,5.84C80,25.27,80,25.27,80.05,25.36Zm5,14.37h0a21.13,21.13,0,0,1-12.59,18.6A20.69,20.69,0,0,1,64.77,60L42.83,61.2l.36-20.3v-.09a22.13,22.13,0,0,1,1.35-9.62A20.88,20.88,0,0,1,55.69,19.52,20.33,20.33,0,0,1,64,17.81h.9a14.58,14.58,0,0,0-.9,5.3A15.82,15.82,0,0,0,79.69,38.92,17.29,17.29,0,0,0,85,38v1.71ZM8.94,63,43.28,29.76a9.34,9.34,0,0,0-.36.9A22.54,22.54,0,0,0,41.48,41l-.36,20.3Zm33.89-.09,21.94-1.17A21.76,21.76,0,0,0,73,59.85a8.36,8.36,0,0,0,.9-.45L42.29,95.07ZM86.44,35.42a20.63,20.63,0,0,0-1.62-5.57c-.09-.09-.09-.27-.18-.36a9.84,9.84,0,0,0-.72-1.35,5.16,5.16,0,0,0-.36-.63,7.77,7.77,0,0,0-.9-1.44c-.09-.09-.18-.27-.27-.36-.36-.44-.72-1-1.08-1.43-.09-.09-.09-.18-.18-.18-.45-.54-.9-1-1.35-1.44h0a22.48,22.48,0,0,0-7.37-4.76,24.42,24.42,0,0,0-4.85-1.35,14,14,0,0,1,26.16,6.83A14.13,14.13,0,0,1,86.44,35.42Zm8.72-9.62a12.06,12.06,0,0,0,.27-2.6A16.22,16.22,0,0,0,94,16.64c1.71.54,5.39,1.89,13,4.67l-11.42,4.4A.68.68,0,0,1,95.16,25.8Z" transform="translate(-4.44 -7.48)"/><ellipse id="Oval" class="cls-2" cx="57.81" cy="32.7" rx="6.29" ry="6.38"/></g><g id="SWOOP"><path id="Path" class="cls-2" d="M112.42,66.32a14.62,14.62,0,0,1-7.49-1.64,10.17,10.17,0,0,1-4-4l3.23-2.44q2.22,4.53,8.36,4.52a9,9,0,0,0,4.16-.88,3,3,0,0,0,1.72-2.83,2.79,2.79,0,0,0-1-2.26,8.83,8.83,0,0,0-3-1.45c-1.23-.38-2-.6-2.3-.67-2-.59-3.5-1-4.4-1.38q-3.39-1.28-4.5-2.94a6.2,6.2,0,0,1-1.09-3.46,6.76,6.76,0,0,1,.93-3.2,7.93,7.93,0,0,1,3-2.94,9.85,9.85,0,0,1,5.12-1.22,15.65,15.65,0,0,1,5.74.92,13.26,13.26,0,0,1,4.46,3.11L117.84,46a7.48,7.48,0,0,0-6.3-2.79,6.81,6.81,0,0,0-3.28.64,3.39,3.39,0,0,0-1.52,1.41,3.25,3.25,0,0,0-.37,1.38,2.48,2.48,0,0,0,1,2,9.58,9.58,0,0,0,2.94,1.41c.12.05,1,.32,2.73.82,1.06.28,2.16.6,3.29,1q3.72,1.24,5,3.15a6.7,6.7,0,0,1,1.26,3.68,7.7,7.7,0,0,1-.91,3.64,6.92,6.92,0,0,1-3.15,2.88A13.41,13.41,0,0,1,112.42,66.32Z" transform="translate(-4.44 -7.48)"/><polygon id="Path-2" data-name="Path" class="cls-2" points="147.98 51.66 153.19 32.5 157.33 32.5 149.89 58.42 146.13 58.42 140.61 39.22 135.08 58.42 131.33 58.42 123.85 32.5 128.03 32.5 133.24 51.66 138.66 32.5 142.56 32.5 147.98 51.66"/><path id="Shape-2" data-name="Shape" class="cls-2" d="M180.76,66.32a13.14,13.14,0,0,1-6.88-1.73,11.24,11.24,0,0,1-4.35-4.78A15.33,15.33,0,0,1,168,52.92,15.29,15.29,0,0,1,169.53,46a11.3,11.3,0,0,1,4.35-4.76,14.57,14.57,0,0,1,13.77,0A11.28,11.28,0,0,1,192,46a16.65,16.65,0,0,1,0,13.77,11.24,11.24,0,0,1-4.35,4.78A13.2,13.2,0,0,1,180.76,66.32Zm0-3.5a7.83,7.83,0,0,0,7.72-5,12.87,12.87,0,0,0,.92-4.9,12.71,12.71,0,0,0-.92-4.86,7.82,7.82,0,0,0-7.72-5,8.2,8.2,0,0,0-4.86,1.38,8,8,0,0,0-2.85,3.63,12.89,12.89,0,0,0-.9,4.86,13.06,13.06,0,0,0,.9,4.9,8,8,0,0,0,2.85,3.62A8.2,8.2,0,0,0,180.76,62.82Z" transform="translate(-4.44 -7.48)"/><path id="Shape-3" data-name="Shape" class="cls-2" d="M213.74,66.32a13.14,13.14,0,0,1-6.88-1.73,11.24,11.24,0,0,1-4.35-4.78A15.33,15.33,0,0,1,201,52.92,15.29,15.29,0,0,1,202.51,46a11.3,11.3,0,0,1,4.35-4.76,14.57,14.57,0,0,1,13.77,0A11.28,11.28,0,0,1,225,46a16.65,16.65,0,0,1,0,13.77,11.2,11.2,0,0,1-4.36,4.78A13.14,13.14,0,0,1,213.74,66.32Zm0-3.5a7.83,7.83,0,0,0,7.72-5,12.87,12.87,0,0,0,.92-4.9,12.71,12.71,0,0,0-.92-4.86,8.7,8.7,0,0,0-12.58-3.63A8,8,0,0,0,206,48.06a12.89,12.89,0,0,0-.9,4.86,13.06,13.06,0,0,0,.9,4.9,8,8,0,0,0,2.85,3.62A8.2,8.2,0,0,0,213.74,62.82Z" transform="translate(-4.44 -7.48)"/><path id="Shape-4" data-name="Shape" class="cls-2" d="M247.6,40a9.23,9.23,0,0,1,5.92,1.82c1.53,1.21,2.3,3.12,2.3,5.71s-.76,4.45-2.28,5.66A9.68,9.68,0,0,1,247.6,55c-.54,0-3.41,0-8.61,0V65.9h-3.86V40H247.6Zm-2.2,11.67a21.69,21.69,0,0,0,3.32-.22A4.07,4.07,0,0,0,251,50.3a3.72,3.72,0,0,0,.94-2.79,3.76,3.76,0,0,0-.94-2.8,4.07,4.07,0,0,0-2.26-1.13,21.85,21.85,0,0,0-3.32-.21H239v8.28Z" transform="translate(-4.44 -7.48)"/></g></g></g></svg>